<svg width="32" height="30" viewBox="0 0 32 30" fill="none" xmlns="http://www.w3.org/2000/svg">
<path d="M14.3623 0.132219C12.3962 0.561785 10.7275 1.62744 9.571 3.197C9.35622 3.49439 8.85231 4.28744 8.45579 4.97309C8.05927 5.65048 7.59666 6.45179 7.42318 6.74918C7.2497 7.04657 6.26666 8.75657 5.23405 10.5492C4.19318 12.3418 2.81361 14.7374 2.15274 15.8774C0.302308 19.0579 0.087525 19.6361 0.0131771 21.4948C-0.0198664 22.3622 0.00491627 22.7174 0.13709 23.3535C0.806221 26.5753 3.19361 29.0122 6.34927 29.6896C7.21666 29.8714 9.81883 29.8961 10.6036 29.7309C12.3549 29.3509 13.6601 28.6157 14.8827 27.327C16.6423 25.4601 17.7327 22.734 18.1954 19.0166C18.3606 17.7114 18.5093 15.0761 18.4267 14.9935C18.3854 14.9522 17.2784 14.9357 15.9649 14.944L13.5775 14.9687L13.5197 16.3648C13.3627 20.0822 12.5697 22.7422 11.2067 24.1053C10.6697 24.6505 10.141 24.8818 9.19927 25.0057C7.30753 25.2618 5.85361 24.5844 5.16796 23.1305C4.93666 22.6266 4.90361 22.4861 4.90361 21.8253C4.90361 21.3627 4.94492 20.9744 5.01927 20.7927C5.08535 20.6357 5.54796 19.7931 6.04361 18.934C8.40622 14.8366 10.8597 10.5905 11.8427 8.89701C12.1732 8.327 12.6688 7.46787 12.9497 6.98874C13.528 5.98092 14.0484 5.44396 14.7588 5.11353C15.1636 4.92352 15.3371 4.89048 16.0145 4.89048C16.7332 4.89048 16.8488 4.91526 17.3362 5.15483C17.9062 5.4357 18.1871 5.667 18.5175 6.10483C18.6332 6.25352 19.6741 8.02961 20.8471 10.0535C22.0119 12.0774 23.5154 14.6796 24.1927 15.8361C26.4149 19.6692 26.6958 20.1731 26.8941 20.5944C27.5797 22.0896 26.8445 23.9648 25.2832 24.7001L24.7297 24.9644L22.2349 24.9892L19.7319 25.0222L19.2775 25.9474C18.6993 27.1453 17.8401 28.434 17.0801 29.2435L16.4854 29.8879L20.8141 29.8548C24.548 29.8301 25.2254 29.8053 25.7623 29.6814C27.3236 29.3179 28.4471 28.6818 29.6449 27.484C30.818 26.3027 31.3797 25.3361 31.8093 23.7253C32.0819 22.7174 32.0571 20.8918 31.768 19.7766C31.6523 19.3387 31.4128 18.6861 31.231 18.3309C31.0575 17.984 29.7441 15.6709 28.3067 13.1927C26.8775 10.7144 25.1923 7.79831 24.5645 6.70787C22.5654 3.23005 22.3341 2.88309 21.4501 2.08179C20.4093 1.14831 19.3436 0.561785 18.0136 0.214828C17.0801 -0.0329971 15.304 -0.0743027 14.3623 0.132219Z" fill="black"/>
</svg>
