<svg width="32" height="32" viewBox="0 0 32 32" fill="none" xmlns="http://www.w3.org/2000/svg">
<path d="M27.9799 16.704C28.1228 14.2744 27.5234 11.8588 26.2615 9.77776C24.9996 7.6967 23.1347 6.04854 20.9143 5.05197C18.6939 4.0554 16.223 3.75753 13.8294 4.19789C11.4358 4.63824 9.23266 5.796 7.51233 7.51756C5.792 9.23911 4.6358 11.4431 4.19714 13.837C3.75848 16.2309 4.05811 18.7016 5.05625 20.9213C6.0544 23.141 7.70388 25.0047 9.78583 26.2651C11.8678 27.5256 14.2838 28.1232 16.7133 27.9786M21.3333 25.3333H29.3333M25.3333 21.3333V29.3333M11.9999 13.3333H12.0133M19.9999 13.3333H20.0133" stroke="black" stroke-width="2.66667" stroke-linecap="round" stroke-linejoin="round"/>
<path d="M12.6666 20C13.544 20.8533 14.7466 21.3333 16 21.3333C17.2533 21.3333 18.456 20.8533 19.3333 20" stroke="black" stroke-width="2.66667" stroke-linecap="round" stroke-linejoin="round"/>
</svg>
