<svg width="12" height="12" viewBox="0 0 12 12" fill="none" xmlns="http://www.w3.org/2000/svg">
<path d="M10.5 6V9.5C10.5 9.76522 10.3946 10.0196 10.2071 10.2071C10.0196 10.3946 9.76522 10.5 9.5 10.5H2.5C2.23478 10.5 1.98043 10.3946 1.79289 10.2071C1.60536 10.0196 1.5 9.76522 1.5 9.5V6H10.5ZM8 1.5C8.13261 1.5 8.25979 1.55268 8.35355 1.64645C8.44732 1.74021 8.5 1.86739 8.5 2V2.5H9.5C9.76522 2.5 10.0196 2.60536 10.2071 2.79289C10.3946 2.98043 10.5 3.23478 10.5 3.5V5H1.5V3.5C1.5 3.23478 1.60536 2.98043 1.79289 2.79289C1.98043 2.60536 2.23478 2.5 2.5 2.5H3.5V2C3.5 1.86739 3.55268 1.74021 3.64645 1.64645C3.74021 1.55268 3.86739 1.5 4 1.5C4.13261 1.5 4.25979 1.55268 4.35355 1.64645C4.44732 1.74021 4.5 1.86739 4.5 2V2.5H7.5V2C7.5 1.86739 7.55268 1.74021 7.64645 1.64645C7.74021 1.55268 7.86739 1.5 8 1.5Z" fill="#1D1D1D" fill-opacity="0.9"/>
</svg>
