<svg width="32" height="32" viewBox="0 0 32 32" fill="none" xmlns="http://www.w3.org/2000/svg">
<path d="M15.9998 24C17.8443 24 19.4167 23.3502 20.7172 22.0507C22.0167 20.7502 22.6665 19.1778 22.6665 17.3333C22.6665 15.4889 22.0167 13.9164 20.7172 12.616C19.4167 11.3164 17.8443 10.6667 15.9998 10.6667C14.1554 10.6667 12.5834 11.3164 11.2838 12.616C9.98339 13.9164 9.33317 15.4889 9.33317 17.3333C9.33317 19.1778 9.98339 20.7502 11.2838 22.0507C12.5834 23.3502 14.1554 24 15.9998 24ZM15.9998 21.3333C14.8887 21.3333 13.9443 20.9444 13.1665 20.1667C12.3887 19.3889 11.9998 18.4444 11.9998 17.3333C11.9998 16.2222 12.3887 15.2778 13.1665 14.5C13.9443 13.7222 14.8887 13.3333 15.9998 13.3333C17.1109 13.3333 18.0554 13.7222 18.8332 14.5C19.6109 15.2778 19.9998 16.2222 19.9998 17.3333C19.9998 18.4444 19.6109 19.3889 18.8332 20.1667C18.0554 20.9444 17.1109 21.3333 15.9998 21.3333ZM23.9998 13.3333C24.3776 13.3333 24.6941 13.2053 24.9492 12.9493C25.2052 12.6942 25.3332 12.3778 25.3332 12C25.3332 11.6222 25.2052 11.3053 24.9492 11.0493C24.6941 10.7942 24.3776 10.6667 23.9998 10.6667C23.6221 10.6667 23.3056 10.7942 23.0505 11.0493C22.7945 11.3053 22.6665 11.6222 22.6665 12C22.6665 12.3778 22.7945 12.6942 23.0505 12.9493C23.3056 13.2053 23.6221 13.3333 23.9998 13.3333ZM5.33317 28C4.59984 28 3.97228 27.7391 3.4505 27.2173C2.92784 26.6947 2.6665 26.0667 2.6665 25.3333V9.33333C2.6665 8.6 2.92784 7.97244 3.4505 7.45067C3.97228 6.928 4.59984 6.66667 5.33317 6.66667H9.53317L11.5998 4.43333C11.7332 4.3 11.8829 4.19422 12.0492 4.116C12.2163 4.03867 12.3887 4 12.5665 4H19.4332C19.6109 4 19.7834 4.03867 19.9505 4.116C20.1167 4.19422 20.2665 4.3 20.3998 4.43333L22.4665 6.66667H26.6665C27.3998 6.66667 28.0278 6.928 28.5505 7.45067C29.0723 7.97244 29.3332 8.6 29.3332 9.33333V25.3333C29.3332 26.0667 29.0723 26.6947 28.5505 27.2173C28.0278 27.7391 27.3998 28 26.6665 28H5.33317ZM26.6665 25.3333V9.33333H21.2665L18.8332 6.66667H13.1665L10.7332 9.33333H5.33317V25.3333H26.6665Z" fill="black"/>
</svg>
