<svg width="24" height="22" viewBox="0 0 24 22" fill="none" xmlns="http://www.w3.org/2000/svg">
<path d="M4.00016 6.99996H12.0002M1.3335 1.66663H6.66683M4.00016 1.66663V16.3333C4.00016 16.6869 4.14064 17.0261 4.39069 17.2761C4.64074 17.5262 4.97987 17.6666 5.3335 17.6666H12.0002M12.0002 5.66663C12.0002 5.313 12.1406 4.97387 12.3907 4.72382C12.6407 4.47377 12.9799 4.33329 13.3335 4.33329H21.3335C21.6871 4.33329 22.0263 4.47377 22.2763 4.72382C22.5264 4.97387 22.6668 5.313 22.6668 5.66663V8.33329C22.6668 8.68691 22.5264 9.02605 22.2763 9.2761C22.0263 9.52615 21.6871 9.66663 21.3335 9.66663H13.3335C12.9799 9.66663 12.6407 9.52615 12.3907 9.2761C12.1406 9.02605 12.0002 8.68691 12.0002 8.33329V5.66663ZM12.0002 16.3333C12.0002 15.9797 12.1406 15.6405 12.3907 15.3905C12.6407 15.1404 12.9799 15 13.3335 15H21.3335C21.6871 15 22.0263 15.1404 22.2763 15.3905C22.5264 15.6405 22.6668 15.9797 22.6668 16.3333V19C22.6668 19.3536 22.5264 19.6927 22.2763 19.9428C22.0263 20.1928 21.6871 20.3333 21.3335 20.3333H13.3335C12.9799 20.3333 12.6407 20.1928 12.3907 19.9428C12.1406 19.6927 12.0002 19.3536 12.0002 19V16.3333Z" stroke="black" stroke-width="2" stroke-linecap="round" stroke-linejoin="round"/>
</svg>
