<svg width="12" height="12" viewBox="0 0 12 12" fill="none" xmlns="http://www.w3.org/2000/svg">
<path d="M11 2.85999L8.7 0.929993L8.055 1.69499L10.355 3.62499L11 2.85999ZM3.94 1.69499L3.3 0.929993L1 2.85499L1.645 3.61999L3.94 1.69499ZM6.25 3.99999H5.5V6.99999L7.875 8.42499L8.25 7.80999L6.25 6.62499V3.99999ZM6 1.99999C3.515 1.99999 1.5 4.01499 1.5 6.49999C1.5 8.98499 3.51 11 6 11C7.19347 11 8.33807 10.5259 9.18198 9.68197C10.0259 8.83806 10.5 7.69347 10.5 6.49999C10.5 5.30652 10.0259 4.16193 9.18198 3.31801C8.33807 2.4741 7.19347 1.99999 6 1.99999ZM6 9.99999C4.065 9.99999 2.5 8.43499 2.5 6.49999C2.5 4.56499 4.065 2.99999 6 2.99999C7.935 2.99999 9.5 4.56499 9.5 6.49999C9.5 8.43499 7.935 9.99999 6 9.99999Z" fill="#1D1D1D" fill-opacity="0.8"/>
</svg>
