<svg width="24" height="24" viewBox="0 0 24 24" fill="none" xmlns="http://www.w3.org/2000/svg">
<path d="M19 10V4H5V10H19ZM5 20C4.45 20 3.97933 19.8043 3.588 19.413C3.19667 19.0217 3.00067 18.5507 3 18V4C3 3.45 3.196 2.97933 3.588 2.588C3.98 2.19667 4.45067 2.00067 5 2H19C19.55 2 20.021 2.196 20.413 2.588C20.805 2.98 21.0007 3.45067 21 4V18C21 18.55 20.8043 19.021 20.413 19.413C20.0217 19.805 19.5507 20.0007 19 20H18C17.7167 20 17.4793 19.904 17.288 19.712C17.0967 19.52 17.0007 19.2827 17 19C16.9993 18.7173 17.0953 18.48 17.288 18.288C17.4807 18.096 17.718 18 18 18H19V12H5V18H6C6.28333 18 6.521 18.096 6.713 18.288C6.905 18.48 7.00067 18.7173 7 19C6.99933 19.2827 6.90333 19.5203 6.712 19.713C6.52067 19.9057 6.28333 20.0013 6 20H5ZM12 22C11.7167 22 11.4793 21.904 11.288 21.712C11.0967 21.52 11.0007 21.2827 11 21V20H10C9.71667 20 9.47933 19.904 9.288 19.712C9.09667 19.52 9.00067 19.2827 9 19C8.99933 18.7173 9.09533 18.48 9.288 18.288C9.48067 18.096 9.718 18 10 18H11V17C11 16.7167 11.096 16.4793 11.288 16.288C11.48 16.0967 11.7173 16.0007 12 16C12.2827 15.9993 12.5203 16.0953 12.713 16.288C12.9057 16.4807 13.0013 16.718 13 17V18H14C14.2833 18 14.521 18.096 14.713 18.288C14.905 18.48 15.0007 18.7173 15 19C14.9993 19.2827 14.9033 19.5203 14.712 19.713C14.5207 19.9057 14.2833 20.0013 14 20H13V21C13 21.2833 12.904 21.521 12.712 21.713C12.52 21.905 12.2827 22.0007 12 22Z" fill="black"/>
</svg>
