<svg width="16" height="16" viewBox="0 0 16 16" fill="none" xmlns="http://www.w3.org/2000/svg">
<path fill-rule="evenodd" clip-rule="evenodd" d="M8.375 2.45861C7.41095 2.45883 6.46646 2.7306 5.64973 3.2428C4.83301 3.755 4.17708 4.48691 3.7571 5.35467C3.33712 6.22243 3.17008 7.19094 3.27511 8.14926C3.38014 9.10757 3.75299 10.0169 4.35095 10.7731C4.94892 11.5293 5.7478 12.1018 6.65608 12.4249C7.56436 12.748 8.54529 12.8088 9.4865 12.6002C10.4277 12.3916 11.2911 11.9221 11.9778 11.2455C12.6645 10.5688 13.1467 9.71243 13.3692 8.7744H9.16447C8.8504 8.7744 8.54919 8.64964 8.32711 8.42755C8.10503 8.20547 7.98026 7.90426 7.98026 7.59019C7.98026 7.27612 8.10503 6.97491 8.32711 6.75283C8.54919 6.53074 8.8504 6.40598 9.16447 6.40598H14.6908C15.0049 6.40598 15.3061 6.53074 15.5282 6.75283C15.7502 6.97491 15.875 7.27612 15.875 7.59019C15.875 9.32447 15.274 11.0051 14.1742 12.3461C13.0744 13.6871 11.5439 14.6055 9.84323 14.9451C8.14251 15.2846 6.37668 15.0242 4.84635 14.2082C3.31601 13.3923 2.11574 12.0712 1.44986 10.4698C0.783977 8.86847 0.693637 7.08584 1.19422 5.42538C1.6948 3.76492 2.75536 2.32925 4.19536 1.36277C5.63537 0.396279 7.36582 -0.0412907 9.09215 0.124542C10.8185 0.290374 12.434 1.04936 13.6637 2.2723C13.7739 2.38199 13.8615 2.51232 13.9214 2.65585C13.9813 2.79938 14.0123 2.95331 14.0127 3.10883C14.0131 3.26436 13.9829 3.41844 13.9238 3.56228C13.8646 3.70612 13.7777 3.83691 13.668 3.94717C13.5583 4.05742 13.428 4.145 13.2845 4.20489C13.1409 4.26478 12.987 4.29581 12.8315 4.29621C12.5174 4.29703 12.2158 4.17303 11.9932 3.95151C11.0327 2.99394 9.73127 2.45696 8.375 2.45861Z" fill="black"/>
</svg>
