<svg width="32" height="32" viewBox="0 0 32 32" fill="none" xmlns="http://www.w3.org/2000/svg">
<path d="M6 28C5.44444 28 4.97244 27.8057 4.584 27.4173C4.19556 27.0289 4.00089 26.5564 4 26V23.4666L9.33333 18.7333V28H6ZM10.6667 28V22.6666H21.3333V28H10.6667ZM22.6667 28V17.0666L16.9667 12L21 8.4333L27.3333 14.0666C27.5556 14.2666 27.7222 14.4946 27.8333 14.7506C27.9444 15.0066 28 15.2786 28 15.5666V26C28 26.5555 27.8058 27.028 27.4173 27.4173C27.0289 27.8066 26.5564 28.0009 26 28H22.6667ZM4 21.6666V15.5666C4 15.2777 4.05556 15 4.16667 14.7333C4.27778 14.4666 4.44444 14.2444 4.66667 14.0666L14.6667 5.19997C14.8444 5.02219 15.0502 4.89463 15.284 4.8173C15.5178 4.73997 15.7564 4.70085 16 4.69997C16.2436 4.69908 16.4827 4.73819 16.7173 4.8173C16.952 4.89641 17.1573 5.02397 17.3333 5.19997L20 7.56663L4 21.6666Z" fill="black"/>
</svg>
