<svg width="18" height="18" viewBox="0 0 18 18" fill="none" xmlns="http://www.w3.org/2000/svg">
<path d="M16.3722 9.4333C16.4601 7.93817 16.0913 6.45166 15.3147 5.17101C14.5382 3.89036 13.3905 2.87611 12.0242 2.26283C10.6578 1.64956 9.13719 1.46626 7.6642 1.73724C6.19122 2.00823 4.83544 2.7207 3.77678 3.78012C2.71811 4.83953 2.00661 6.19581 1.73666 7.66899C1.46672 9.14218 1.6511 10.6626 2.26535 12.0286C2.87959 13.3945 3.89466 14.5414 5.17586 15.3171C6.45706 16.0927 7.94383 16.4605 9.4389 16.3716M12.282 14.7437H17.2051M14.7435 12.2821V17.2052M6.53839 7.35905H6.54659M11.4615 7.35905H11.4697" stroke="white" stroke-width="1.3" stroke-linecap="round" stroke-linejoin="round"/>
<path d="M6.94849 11.4615C7.48838 11.9866 8.22849 12.282 8.99977 12.282C9.77105 12.282 10.5112 11.9866 11.0511 11.4615" stroke="white" stroke-width="1.3" stroke-linecap="round" stroke-linejoin="round"/>
</svg>
