<svg width="32" height="32" viewBox="0 0 32 32" fill="none" xmlns="http://www.w3.org/2000/svg">
<path d="M3.66667 23.6667C3.37778 23.3778 3.23334 23.0444 3.23334 22.6667C3.23334 22.2889 3.37778 21.9556 3.66667 21.6667L10.7667 14.5667C11.2778 14.0556 11.9111 13.8 12.6667 13.8C13.4222 13.8 14.0556 14.0556 14.5667 14.5667L18 18L26.5333 8.36667C26.7778 8.07778 27.0947 7.93333 27.484 7.93333C27.8733 7.93333 28.2009 8.06667 28.4667 8.33333C28.7111 8.57778 28.8387 8.872 28.8493 9.216C28.86 9.56 28.7436 9.86578 28.5 10.1333L19.8667 19.8667C19.3556 20.4444 18.7222 20.7502 17.9667 20.784C17.2111 20.8178 16.5556 20.5564 16 20L12.6667 16.6667L5.66667 23.6667C5.37778 23.9556 5.04445 24.1 4.66667 24.1C4.28889 24.1 3.95556 23.9556 3.66667 23.6667Z" fill="black"/>
</svg>
