<svg width="32" height="32" viewBox="0 0 32 32" fill="none" xmlns="http://www.w3.org/2000/svg">
<path fill-rule="evenodd" clip-rule="evenodd" d="M8.3335 10.6667C8.3335 8.63334 9.14123 6.68329 10.579 5.24551C12.0168 3.80774 13.9668 3 16.0002 3C18.0335 3 19.9835 3.80774 21.4213 5.24551C22.8591 6.68329 23.6668 8.63334 23.6668 10.6667V14.6667C23.6668 16.7 22.8591 18.65 21.4213 20.0878C19.9835 21.5256 18.0335 22.3333 16.0002 22.3333C13.9668 22.3333 12.0168 21.5256 10.579 20.0878C9.14123 18.65 8.3335 16.7 8.3335 14.6667V10.6667ZM16.0002 5C14.4973 5 13.0559 5.59702 11.9932 6.65973C10.9305 7.72243 10.3335 9.16377 10.3335 10.6667V14.6667C10.3335 16.1696 10.9305 17.6109 11.9932 18.6736C13.0559 19.7363 14.4973 20.3333 16.0002 20.3333C17.5031 20.3333 18.9444 19.7363 20.0071 18.6736C21.0698 17.6109 21.6668 16.1696 21.6668 14.6667V10.6667C21.6668 9.16377 21.0698 7.72243 20.0071 6.65973C18.9444 5.59702 17.5031 5 16.0002 5ZM13.6668 10.6667C13.6668 10.4015 13.7722 10.1471 13.9597 9.95956C14.1473 9.77202 14.4016 9.66667 14.6668 9.66667H17.3335C17.5987 9.66667 17.8531 9.77202 18.0406 9.95956C18.2281 10.1471 18.3335 10.4015 18.3335 10.6667C18.3335 10.9319 18.2281 11.1862 18.0406 11.3738C17.8531 11.5613 17.5987 11.6667 17.3335 11.6667H14.6668C14.4016 11.6667 14.1473 11.5613 13.9597 11.3738C13.7722 11.1862 13.6668 10.9319 13.6668 10.6667ZM5.3335 12.3333C5.59871 12.3333 5.85307 12.4387 6.0406 12.6262C6.22814 12.8138 6.3335 13.0681 6.3335 13.3333V14.6667C6.3335 15.9361 6.58353 17.1931 7.06933 18.3659C7.55512 19.5388 8.26716 20.6044 9.1648 21.502C10.0624 22.3997 11.1281 23.1117 12.3009 23.5975C13.4737 24.0833 14.7307 24.3333 16.0002 24.3333C17.2696 24.3333 18.5266 24.0833 19.6994 23.5975C20.8723 23.1117 21.9379 22.3997 22.8355 21.502C23.7332 20.6044 24.4452 19.5388 24.931 18.3659C25.4168 17.1931 25.6668 15.9361 25.6668 14.6667V13.3333C25.6668 13.0681 25.7722 12.8138 25.9597 12.6262C26.1473 12.4387 26.4016 12.3333 26.6668 12.3333C26.932 12.3333 27.1864 12.4387 27.3739 12.6262C27.5615 12.8138 27.6668 13.0681 27.6668 13.3333V14.6667C27.6669 17.5878 26.5711 20.4027 24.5961 22.5549C22.6211 24.7072 19.9105 26.0403 17.0002 26.2907V29.3333C17.0002 29.5986 16.8948 29.8529 16.7073 30.0404C16.5197 30.228 16.2654 30.3333 16.0002 30.3333C15.7349 30.3333 15.4806 30.228 15.2931 30.0404C15.1055 29.8529 15.0002 29.5986 15.0002 29.3333V26.2907C12.0898 26.0403 9.37923 24.7072 7.40421 22.5549C5.42919 20.4027 4.33343 17.5878 4.3335 14.6667V13.3333C4.3335 13.0681 4.43885 12.8138 4.62639 12.6262C4.81393 12.4387 5.06828 12.3333 5.3335 12.3333ZM12.3335 14.6667C12.3335 14.4015 12.4389 14.1471 12.6264 13.9596C12.8139 13.772 13.0683 13.6667 13.3335 13.6667H18.6668C18.932 13.6667 19.1864 13.772 19.3739 13.9596C19.5615 14.1471 19.6668 14.4015 19.6668 14.6667C19.6668 14.9319 19.5615 15.1862 19.3739 15.3738C19.1864 15.5613 18.932 15.6667 18.6668 15.6667H13.3335C13.0683 15.6667 12.8139 15.5613 12.6264 15.3738C12.4389 15.1862 12.3335 14.9319 12.3335 14.6667Z" fill="black"/>
</svg>
