<svg width="27" height="27" viewBox="0 0 27 27" fill="none" xmlns="http://www.w3.org/2000/svg">
<path d="M4.3335 0.333374V4.33337H0.333496V7.00004H4.3335V11H7.00016V7.00004H11.0002V4.33337H7.00016V0.333374H4.3335ZM3.00016 25.676V13.6667H5.66683V24.3334H16.3335V17.6667C16.3335 16.9334 16.9335 16.3334 17.6668 16.3334L24.3335 16.332V5.66671H13.6668V3.00004H25.6762C26.4068 3.00004 27.0002 3.60804 27.0002 4.33604V19L19.0002 26.9947L4.33616 27C3.98369 27.0008 3.64528 26.8619 3.39492 26.6138C3.14456 26.3657 3.00263 26.0285 3.00016 25.676ZM23.2282 18.9987L19.0002 19V23.2254L23.2282 18.9987Z" fill="black"/>
</svg>
