<svg width="24" height="24" viewBox="0 0 24 24" fill="none" xmlns="http://www.w3.org/2000/svg">
<path d="M12 1.1748C14.0753 1.1748 16.0657 1.99935 17.5332 3.4668L17.8008 3.74805C19.1005 5.18347 19.8252 7.05439 19.8252 9V9.7041L19.835 9.95898C19.8788 10.5512 20.0743 11.1236 20.4053 11.6201L21.5537 13.3438L21.6738 13.5371C22.8114 15.4924 21.8672 18.013 19.7256 18.7402L19.5078 18.8076C18.765 19.0096 18.0143 19.1808 17.2578 19.3232C16.4674 21.3872 14.3947 22.8252 12 22.8252C9.60518 22.8252 7.53148 21.3874 6.74219 19.3232C6.17909 19.2177 5.61914 19.0956 5.0625 18.9561L4.49316 18.8076C2.12501 18.1621 1.08531 15.3863 2.44727 13.3438L3.59473 11.6201L3.72852 11.4033C4.02067 10.8862 4.17474 10.3009 4.1748 9.7041V9C4.1748 6.9247 4.99934 4.93427 6.4668 3.4668L6.74805 3.19922C8.18345 1.8995 10.0544 1.17482 12 1.1748ZM15.2139 19.6289C13.0773 19.8708 10.9208 19.8709 8.78418 19.6289C9.49371 20.5552 10.6597 21.1748 12 21.1748C13.34 21.1748 14.5044 20.5549 15.2139 19.6289ZM12 2.8252C10.4646 2.82521 8.98823 3.39706 7.85547 4.42285L7.63379 4.63379C6.47577 5.79182 5.8252 7.3623 5.8252 9V9.7041L5.81152 10.0811C5.75614 10.8311 5.53573 11.5599 5.16602 12.2148L4.96875 12.5352L3.81836 14.2598C3.69013 14.452 3.59715 14.665 3.54395 14.8887L3.50391 15.1162C3.46863 15.4224 3.50713 15.7329 3.61523 16.0215L3.70898 16.2314C3.81453 16.4357 3.95516 16.6206 4.12598 16.7764L4.30566 16.9209C4.49284 17.0547 4.7026 17.1551 4.92578 17.2158L5.36035 17.3301C9.86186 18.4773 14.5866 18.4394 19.0732 17.2158L19.292 17.1416C19.5052 17.0554 19.7021 16.9321 19.873 16.7764C20.101 16.5686 20.2766 16.3094 20.3848 16.0205L20.4521 15.8008C20.4886 15.6518 20.5073 15.4991 20.5078 15.3457L20.4951 15.1152C20.4685 14.8855 20.4011 14.6631 20.2969 14.458L20.1807 14.2588L19.0322 12.5352C18.4732 11.697 18.1748 10.7117 18.1748 9.7041V9C18.1748 7.46454 17.603 5.98825 16.5771 4.85547L16.3662 4.63379C15.2082 3.47577 13.6377 2.8252 12 2.8252Z" fill="#1D1D1D" stroke="black" stroke-width="0.15"/>
</svg>
