<svg width="16" height="16" viewBox="0 0 16 16" fill="none" xmlns="http://www.w3.org/2000/svg">
<path fill-rule="evenodd" clip-rule="evenodd" d="M8.0001 1.3111C6.72117 1.3111 5.49462 1.81915 4.59028 2.72349C3.68594 3.62783 3.17788 4.85439 3.17788 6.13332V6.57136C3.17785 7.00499 3.04946 7.42889 2.80891 7.78967L2.09522 8.86176C1.26517 10.1062 1.89859 11.7974 3.34153 12.1907C3.81151 12.3188 4.28523 12.4273 4.76268 12.5161L4.76393 12.5192C5.24179 13.796 6.52046 14.6889 8.0001 14.6889C9.47975 14.6889 10.7584 13.796 11.2369 12.5192L11.2381 12.5161C11.7161 12.4268 12.1902 12.3182 12.6593 12.1907C14.1022 11.7974 14.7357 10.1062 13.9056 8.86176L13.1913 7.78967C12.9508 7.42889 12.8224 7.00499 12.8223 6.57136V6.13332C12.8223 4.85439 12.3143 3.62783 11.4099 2.72349C10.5056 1.81915 9.27904 1.3111 8.0001 1.3111ZM10.1007 12.6897C8.70505 12.8562 7.29453 12.8562 5.89886 12.6897C6.34126 13.325 7.11095 13.7555 8.0001 13.7555C8.88926 13.7555 9.65833 13.325 10.1007 12.6897ZM4.11122 6.13332C4.11122 5.10192 4.52094 4.11277 5.25025 3.38346C5.97955 2.65415 6.96871 2.24443 8.0001 2.24443C9.0315 2.24443 10.0207 2.65415 10.75 3.38346C11.4793 4.11277 11.889 5.10192 11.889 6.13332V6.57136C11.889 7.18923 12.0719 7.79341 12.4148 8.30736L13.1291 9.37945C13.2398 9.54521 13.3094 9.73493 13.3324 9.93293C13.3553 10.1309 13.3308 10.3315 13.2609 10.5182C13.191 10.7049 13.0777 10.8722 12.9304 11.0065C12.783 11.1407 12.6059 11.238 12.4135 11.2903C9.52381 12.0784 6.47578 12.0784 3.58606 11.2903C3.39382 11.238 3.21676 11.1407 3.06951 11.0065C2.92225 10.8723 2.809 10.705 2.73911 10.5184C2.66922 10.3318 2.64469 10.1313 2.66753 9.9334C2.69038 9.73548 2.75995 9.54582 2.8705 9.38007L3.58606 8.30736C3.92862 7.79321 4.11134 7.18918 4.11122 6.57136V6.13332Z" fill="#1D1D1D" fill-opacity="0.9"/>
</svg>
