<svg width="32" height="32" viewBox="0 0 32 32" fill="none" xmlns="http://www.w3.org/2000/svg">
<path d="M20.2933 12.4999C20.5121 12.2269 20.8295 12.0508 21.177 12.0096C21.5244 11.9685 21.8741 12.0655 22.1507 12.2799L22.276 12.3906L27.6093 17.7239C27.8166 17.9313 27.9496 18.2012 27.988 18.4919L28 18.6666V25.3332C28 25.6598 27.8801 25.975 27.663 26.2191C27.446 26.4631 27.147 26.619 26.8227 26.6572L26.6667 26.6666H5.304L5.15733 26.6546L5.01067 26.6279L4.868 26.5826L4.728 26.5212L4.59467 26.4426L4.46933 26.3492L4.38933 26.2759L4.29333 26.1666L4.208 26.0479L4.136 25.9199L4.11467 25.8732L4.06133 25.7359L4.02533 25.5946L4.00533 25.4506L4 25.3039L4.012 25.1572L4.03733 25.0172C4.05067 24.9639 4.06622 24.9141 4.084 24.8679L4.14533 24.7279L4.224 24.5946L9.55733 16.5946C9.72149 16.3474 9.96338 16.1621 10.2447 16.0679C10.5261 15.9737 10.8308 15.9761 11.1107 16.0746L11.2627 16.1412L15.632 18.3252L20.2933 12.4999Z" fill="black"/>
<path d="M20.3093 4.47996C20.5306 4.21417 20.8464 4.04474 21.1902 4.00742C21.534 3.97011 21.8789 4.06783 22.152 4.27996L22.276 4.39063L27.6093 9.72396C27.8484 9.96391 27.9873 10.2859 27.9976 10.6245C28.008 10.9631 27.889 11.2929 27.665 11.547C27.4409 11.8011 27.1286 11.9604 26.7913 11.9925C26.4541 12.0246 26.1173 11.9272 25.8493 11.72L25.724 11.6093L21.4226 7.3093L15.6906 14.1866C15.5165 14.3955 15.2827 14.5461 15.0206 14.6183C14.7584 14.6905 14.4805 14.6809 14.224 14.5906L14.0706 14.5253L9.73198 12.3573L6.39998 16.8C6.20519 17.0597 5.92231 17.2395 5.60441 17.3055C5.28651 17.3716 4.95544 17.3193 4.67331 17.1586L4.53331 17.0666C4.27355 16.8718 4.09378 16.589 4.02775 16.2711C3.96171 15.9532 4.01395 15.6221 4.17465 15.34L4.26665 15.2L8.26665 9.86663C8.43765 9.63887 8.67708 9.47185 8.94989 9.39003C9.22269 9.30821 9.51453 9.3159 9.78265 9.41196L9.92931 9.47463L14.3173 11.668L20.3093 4.47996Z" fill="black"/>
</svg>
