<svg width="32" height="32" viewBox="0 0 32 32" fill="none" xmlns="http://www.w3.org/2000/svg">
<path d="M5.74007 4.59601C5.4781 4.55491 5.20991 4.58399 4.96283 4.68029C4.71576 4.77659 4.49863 4.93666 4.33357 5.14421C4.16851 5.35175 4.06142 5.59934 4.02321 5.86175C3.98501 6.12417 4.01705 6.39201 4.11607 6.63801L6.78007 13.248C6.92928 13.618 7.18573 13.9349 7.51647 14.158C7.84721 14.3811 8.23711 14.5002 8.63607 14.5H16.5001C16.8979 14.5 17.2794 14.658 17.5607 14.9394C17.842 15.2207 18.0001 15.6022 18.0001 16C18.0001 16.3978 17.842 16.7794 17.5607 17.0607C17.2794 17.342 16.8979 17.5 16.5001 17.5H8.63607C8.23746 17.5002 7.84799 17.6195 7.51764 17.8425C7.1873 18.0656 6.93115 18.3823 6.78207 18.752L4.11607 25.362C4.01671 25.6079 3.98433 25.8758 4.02223 26.1383C4.06014 26.4008 4.16697 26.6486 4.33184 26.8563C4.49671 27.0641 4.71372 27.2244 4.96076 27.321C5.20779 27.4176 5.47601 27.4469 5.73807 27.406C14.2722 26.0773 22.3141 22.5519 29.0741 17.176C29.2511 17.0356 29.394 16.8569 29.4923 16.6535C29.5906 16.45 29.6417 16.227 29.6417 16.001C29.6417 15.7751 29.5906 15.552 29.4923 15.3486C29.394 15.1451 29.2511 14.9665 29.0741 14.826C22.3141 9.45009 14.2742 5.9247 5.74007 4.59601Z" fill="black"/>
</svg>
