<svg width="32" height="32" viewBox="0 0 32 32" fill="none" xmlns="http://www.w3.org/2000/svg">
<path fill-rule="evenodd" clip-rule="evenodd" d="M16.5707 2.66663C15.0853 2.66663 13.732 3.46663 11.028 5.06929L10.1133 5.61063C7.40668 7.21329 6.05601 8.01463 5.31335 9.33329C4.57068 10.6533 4.57068 12.2533 4.57068 15.4586V16.5413C4.57068 19.7453 4.57068 21.348 5.31335 22.6666C6.05601 23.9853 7.40668 24.7866 10.1133 26.388L11.028 26.9306C13.732 28.532 15.0853 29.3333 16.5707 29.3333C18.056 29.3333 19.408 28.5333 22.1133 26.9306L23.028 26.388C25.732 24.788 27.0853 23.9853 27.828 22.6666C28.5707 21.3466 28.5707 19.7466 28.5707 16.5413V15.4586C28.5707 12.2546 28.5707 10.652 27.828 9.33329C27.0853 8.01463 25.732 7.21329 23.028 5.61063L22.1133 5.06929C19.4067 3.46796 18.056 2.66663 16.5707 2.66663ZM11.5707 16C11.5707 14.6739 12.0975 13.4021 13.0351 12.4644C13.9728 11.5267 15.2446 11 16.5707 11C17.8968 11 19.1685 11.5267 20.1062 12.4644C21.0439 13.4021 21.5707 14.6739 21.5707 16C21.5707 17.326 21.0439 18.5978 20.1062 19.5355C19.1685 20.4732 17.8968 21 16.5707 21C15.2446 21 13.9728 20.4732 13.0351 19.5355C12.0975 18.5978 11.5707 17.326 11.5707 16Z" fill="black"/>
</svg>
