<svg width="30" height="28" viewBox="0 0 30 28" fill="none" xmlns="http://www.w3.org/2000/svg">
<path d="M13.9998 27.3333C12.1554 27.3333 10.4221 26.9831 8.79984 26.2826C7.17762 25.5822 5.76651 24.6324 4.56651 23.4333C3.36651 22.2342 2.41673 20.8231 1.71717 19.2C1.01762 17.5768 0.667394 15.8435 0.666506 14C0.665617 12.1564 1.01584 10.4231 1.71717 8.79996C2.41851 7.17685 3.36828 5.76574 4.56651 4.56663C5.76473 3.36752 7.17584 2.41774 8.79984 1.71729C10.4238 1.01685 12.1572 0.666626 13.9998 0.666626C15.0665 0.666626 16.1056 0.788848 17.1172 1.03329C18.1287 1.27774 19.1007 1.63329 20.0332 2.09996C20.3665 2.27774 20.5834 2.5444 20.6838 2.89996C20.7843 3.25551 20.723 3.58885 20.4998 3.89996C20.2767 4.21107 19.9821 4.41107 19.6158 4.49996C19.2496 4.58885 18.8887 4.5444 18.5332 4.36663C17.8221 4.03329 17.083 3.77774 16.3158 3.59996C15.5487 3.42218 14.7767 3.33329 13.9998 3.33329C11.0221 3.33329 8.49984 4.36663 6.43317 6.43329C4.36651 8.49996 3.33317 11.0222 3.33317 14C3.33317 16.9777 4.36651 19.5 6.43317 21.5666C8.49984 23.6333 11.0221 24.6666 13.9998 24.6666C14.5776 24.6666 15.1443 24.6222 15.6998 24.5333C16.2554 24.4444 16.8109 24.3111 17.3665 24.1333C17.7443 24.0222 18.111 24.0168 18.4665 24.1173C18.8221 24.2177 19.0998 24.4342 19.2998 24.7666C19.4776 25.0777 19.5163 25.4111 19.4158 25.7666C19.3154 26.1222 19.0878 26.3666 18.7332 26.5C17.9776 26.7888 17.1998 27 16.3998 27.1333C15.5998 27.2666 14.7998 27.3333 13.9998 27.3333ZM23.3332 20.6666H20.6665C20.2887 20.6666 19.9723 20.5386 19.7172 20.2826C19.4621 20.0266 19.3341 19.7102 19.3332 19.3333C19.3323 18.9564 19.4603 18.64 19.7172 18.384C19.9741 18.128 20.2905 18 20.6665 18H23.3332V15.3333C23.3332 14.9555 23.4612 14.6391 23.7172 14.384C23.9732 14.1288 24.2896 14.0008 24.6665 14C25.0434 13.9991 25.3603 14.1271 25.6172 14.384C25.8741 14.6408 26.0016 14.9573 25.9998 15.3333V18H28.6665C29.0443 18 29.3612 18.128 29.6172 18.384C29.8732 18.64 30.0007 18.9564 29.9998 19.3333C29.999 19.7102 29.871 20.0271 29.6158 20.284C29.3607 20.5408 29.0443 20.6684 28.6665 20.6666H25.9998V23.3333C25.9998 23.7111 25.8718 24.028 25.6158 24.284C25.3598 24.54 25.0434 24.6675 24.6665 24.6666C24.2896 24.6657 23.9732 24.5377 23.7172 24.2826C23.4612 24.0275 23.3332 23.7111 23.3332 23.3333V20.6666ZM12.1332 16.4L24.5332 3.96663C24.7776 3.72218 25.0887 3.59996 25.4665 3.59996C25.8443 3.59996 26.1554 3.72218 26.3998 3.96663C26.6443 4.21107 26.7665 4.52218 26.7665 4.89996C26.7665 5.27774 26.6443 5.58885 26.3998 5.83329L13.0665 19.2C12.7998 19.4666 12.4887 19.6 12.1332 19.6C11.7776 19.6 11.4665 19.4666 11.1998 19.2L7.39984 15.4C7.1554 15.1555 7.03317 14.8444 7.03317 14.4666C7.03317 14.0888 7.1554 13.7777 7.39984 13.5333C7.64428 13.2888 7.95539 13.1666 8.33317 13.1666C8.71095 13.1666 9.02206 13.2888 9.26651 13.5333L12.1332 16.4Z" fill="black"/>
</svg>
