<svg width="32" height="32" viewBox="0 0 32 32" fill="none" xmlns="http://www.w3.org/2000/svg">
<path d="M16 1C7.71575 1 1 7.71575 1 16C1 24.2843 7.71575 31 16 31C24.2843 31 31 24.2843 31 16C31 7.71575 24.2843 1 16 1ZM25.1924 25.1924C22.913 27.4649 19.8692 28.8075 16.6541 28.9584C13.439 29.1093 10.2828 28.0578 7.80058 26.0088C5.31836 23.9598 3.68791 21.06 3.22693 17.8745C2.76594 14.689 3.50744 11.446 5.30695 8.77736C7.10645 6.10871 9.83505 4.20562 12.9611 3.43889C16.0871 2.67216 19.3866 3.09674 22.2167 4.62987C25.0468 6.16301 27.2047 8.69489 28.27 11.7322C29.3353 14.7694 29.2316 18.0945 27.9792 21.0596C27.3265 22.6046 26.3801 24.0081 25.1924 25.1924Z" fill="black"/>
<path d="M15.9999 17.5C14.276 17.5 12.6227 18.1848 11.4038 19.4038C10.1848 20.6228 9.49995 22.2761 9.49995 24H22.4999C22.4999 22.2761 21.8151 20.6228 20.5961 19.4038C19.3772 18.1848 17.7239 17.5 15.9999 17.5ZM7.33557 11.7475L8.66438 10.2527L13.1644 14.2527L11.8356 15.7476L7.33557 11.7475ZM18.5026 14.5857L22.5026 10.0857L23.9974 11.4144L19.9974 15.9144L18.5026 14.5857Z" fill="black"/>
</svg>
