<svg width="32" height="32" viewBox="0 0 32 32" fill="none" xmlns="http://www.w3.org/2000/svg">
<path d="M16 1C7.71575 1 1 7.71575 1 16C1 24.2843 7.71575 31 16 31C24.2843 31 31 24.2843 31 16C31 7.71575 24.2843 1 16 1ZM25.1924 25.1924C22.913 27.4649 19.8692 28.8075 16.6541 28.9584C13.439 29.1093 10.2828 28.0578 7.80058 26.0088C5.31836 23.9598 3.68791 21.06 3.22693 17.8745C2.76594 14.689 3.50744 11.446 5.30695 8.77736C7.10645 6.10871 9.83505 4.20562 12.9611 3.43889C16.0871 2.67216 19.3866 3.09674 22.2167 4.62987C25.0468 6.16301 27.2047 8.69489 28.27 11.7322C29.3353 14.7694 29.2316 18.0945 27.9792 21.0596C27.3265 22.6046 26.3801 24.0081 25.1924 25.1924Z" fill="black"/>
<path d="M9.5 12.5H12V15H9.5V12.5ZM20 12.5H22.5V15H20V12.5ZM16 24C17.7239 24 19.3772 23.3152 20.5962 22.0962C21.8152 20.8772 22.5 19.2239 22.5 17.5H9.5C9.5 19.2239 10.1848 20.8772 11.4038 22.0962C12.6228 23.3152 14.2761 24 16 24Z" fill="black"/>
</svg>
