<svg width="32" height="32" viewBox="0 0 32 32" fill="none" xmlns="http://www.w3.org/2000/svg">
<g clip-path="url(#clip0_59_139)">
<path d="M10.4533 18.56L9.81333 17.7067L8.10667 18.9867L8.74667 19.84L10.4533 18.56ZM23.2533 19.84L23.8933 18.9867L22.1867 17.7067L21.5467 18.56L23.2533 19.84ZM16 29.8667C12.3223 29.8667 8.79529 28.4057 6.19479 25.8052C3.59428 23.2047 2.13333 19.6777 2.13333 16H0C0 20.2435 1.68571 24.3131 4.68629 27.3137C7.68687 30.3143 11.7565 32 16 32V29.8667ZM29.8667 16C29.8667 17.821 29.508 19.6242 28.8111 21.3065C28.1143 22.9889 27.0929 24.5176 25.8052 25.8052C24.5176 27.0929 22.9889 28.1143 21.3065 28.8111C19.6242 29.508 17.821 29.8667 16 29.8667V32C20.2435 32 24.3131 30.3143 27.3137 27.3137C30.3143 24.3131 32 20.2435 32 16H29.8667ZM16 2.13333C17.821 2.13333 19.6242 2.49201 21.3065 3.18887C22.9889 3.88574 24.5176 4.90715 25.8052 6.19479C27.0929 7.48243 28.1143 9.01108 28.8111 10.6935C29.508 12.3758 29.8667 14.179 29.8667 16H32C32 11.7565 30.3143 7.68687 27.3137 4.68629C24.3131 1.68571 20.2435 0 16 0V2.13333ZM16 0C11.7565 0 7.68687 1.68571 4.68629 4.68629C1.68571 7.68687 0 11.7565 0 16H2.13333C2.13333 12.3223 3.59428 8.79529 6.19479 6.19479C8.79529 3.59428 12.3223 2.13333 16 2.13333V0ZM8.53333 12.8H10.6667V10.6667H8.53333V12.8ZM21.3333 12.8H23.4667V10.6667H21.3333V12.8ZM21.5467 18.56C20.9008 19.4211 20.0634 20.12 19.1007 20.6014C18.138 21.0827 17.0764 21.3333 16 21.3333C14.9236 21.3333 13.8621 21.0827 12.8993 20.6014C11.9366 20.12 11.0992 19.4211 10.4533 18.56L8.74667 19.84C12.3733 24.6763 19.6267 24.6763 23.2533 19.84L21.5467 18.56Z" fill="black"/>
</g>
<defs>
<clipPath id="clip0_59_139">
<rect width="32" height="32" fill="white"/>
</clipPath>
</defs>
</svg>
